<?xml version="1.0" encoding="UTF-8" standalone="no"?>
<!DOCTYPE svg PUBLIC "-//W3C//DTD SVG 1.1//EN"
 "http://www.w3.org/Graphics/SVG/1.1/DTD/svg11.dtd">
<!-- Generated by graphviz version 2.38.0 (20140413.2041)
 -->
<!-- Title: captest Pages: 1 -->
<svg width="685pt" height="250pt"
 viewBox="0.00 0.00 684.56 249.87" xmlns="http://www.w3.org/2000/svg" xmlns:xlink="http://www.w3.org/1999/xlink">
<g id="graph0" class="graph" transform="scale(1 1) rotate(0) translate(4 245.869)">
<title>captest</title>
<polygon fill="white" stroke="none" points="-4,4 -4,-245.869 680.556,-245.869 680.556,4 -4,4"/>
<!-- mesh -->
<g id="node1" class="node"><title>mesh</title>
<ellipse fill="none" stroke="black" cx="29.8973" cy="-108.869" rx="29.795" ry="18"/>
<text text-anchor="middle" x="29.8973" y="-105.169" font-family="Times,serif" font-size="14.00">mesh</text>
</g>
<!-- boundary -->
<g id="node2" class="node"><title>boundary</title>
<ellipse fill="none" stroke="black" cx="145.19" cy="-131.869" rx="44.393" ry="18"/>
<text text-anchor="middle" x="145.19" y="-128.169" font-family="Times,serif" font-size="14.00">boundary</text>
</g>
<!-- mesh&#45;&gt;boundary -->
<g id="edge1" class="edge"><title>mesh&#45;&gt;boundary</title>
<path fill="none" stroke="black" d="M58.6119,-114.495C69.6736,-116.741 82.7473,-119.395 95.3027,-121.944"/>
<polygon fill="black" stroke="black" points="94.716,-125.396 105.212,-123.956 96.1087,-118.536 94.716,-125.396"/>
</g>
<!-- raster -->
<g id="node3" class="node"><title>raster</title>
<ellipse fill="none" stroke="black" cx="281.931" cy="-108.869" rx="30.5947" ry="18"/>
<text text-anchor="middle" x="281.931" y="-105.169" font-family="Times,serif" font-size="14.00">raster</text>
</g>
<!-- mesh&#45;&gt;raster -->
<g id="edge3" class="edge"><title>mesh&#45;&gt;raster</title>
<path fill="none" stroke="black" d="M59.6325,-106.716C70.9013,-105.972 83.9476,-105.234 95.7947,-104.869 139.681,-103.518 150.69,-103.853 194.586,-104.869 209.797,-105.221 226.504,-105.922 241.135,-106.64"/>
<polygon fill="black" stroke="black" points="241.206,-110.148 251.371,-107.161 241.562,-103.157 241.206,-110.148"/>
</g>
<!-- capbound1 -->
<g id="node6" class="node"><title>capbound1</title>
<ellipse fill="none" stroke="black" cx="145.19" cy="-223.869" rx="49.2915" ry="18"/>
<text text-anchor="middle" x="145.19" y="-220.169" font-family="Times,serif" font-size="14.00">capbound1</text>
</g>
<!-- mesh&#45;&gt;capbound1 -->
<g id="edge6" class="edge"><title>mesh&#45;&gt;capbound1</title>
<path fill="none" stroke="black" d="M41.697,-125.763C53.571,-143.522 73.8921,-171.64 95.7947,-191.869 99.9569,-195.713 104.627,-199.413 109.38,-202.846"/>
<polygon fill="black" stroke="black" points="107.707,-205.943 117.934,-208.712 111.666,-200.17 107.707,-205.943"/>
</g>
<!-- capweight1 -->
<g id="node7" class="node"><title>capweight1</title>
<ellipse fill="none" stroke="black" cx="281.931" cy="-177.869" rx="51.1914" ry="18"/>
<text text-anchor="middle" x="281.931" y="-174.169" font-family="Times,serif" font-size="14.00">capweight1</text>
</g>
<!-- mesh&#45;&gt;capweight1 -->
<g id="edge12" class="edge"><title>mesh&#45;&gt;capweight1</title>
<path fill="none" stroke="black" d="M45.8623,-124.371C58.1097,-135.997 76.5055,-151.179 95.7947,-158.869 135.437,-174.673 183.456,-179.227 220.655,-179.933"/>
<polygon fill="black" stroke="black" points="220.81,-183.434 230.844,-180.036 220.88,-176.435 220.81,-183.434"/>
</g>
<!-- capbound2 -->
<g id="node9" class="node"><title>capbound2</title>
<ellipse fill="none" stroke="black" cx="145.19" cy="-39.869" rx="49.2915" ry="18"/>
<text text-anchor="middle" x="145.19" y="-36.169" font-family="Times,serif" font-size="14.00">capbound2</text>
</g>
<!-- mesh&#45;&gt;capbound2 -->
<g id="edge9" class="edge"><title>mesh&#45;&gt;capbound2</title>
<path fill="none" stroke="black" d="M51.677,-96.2133C68.0004,-86.2717 91.074,-72.219 110.094,-60.635"/>
<polygon fill="black" stroke="black" points="112.063,-63.5341 118.783,-55.3432 108.422,-57.5556 112.063,-63.5341"/>
</g>
<!-- capweight2 -->
<g id="node10" class="node"><title>capweight2</title>
<ellipse fill="none" stroke="black" cx="281.931" cy="-39.869" rx="51.1914" ry="18"/>
<text text-anchor="middle" x="281.931" y="-36.169" font-family="Times,serif" font-size="14.00">capweight2</text>
</g>
<!-- mesh&#45;&gt;capweight2 -->
<g id="edge13" class="edge"><title>mesh&#45;&gt;capweight2</title>
<path fill="none" stroke="black" d="M36.9385,-91.0776C45.7918,-68.1789 64.7012,-29.3811 95.7947,-12.869 141.811,11.568 202.848,-5.21931 242.015,-21.1639"/>
<polygon fill="black" stroke="black" points="240.906,-24.4952 251.479,-25.1739 243.637,-18.0499 240.906,-24.4952"/>
</g>
<!-- boundary&#45;&gt;raster -->
<g id="edge2" class="edge"><title>boundary&#45;&gt;raster</title>
<path fill="none" stroke="black" d="M186.252,-125.031C204.02,-121.998 224.839,-118.444 242.423,-115.442"/>
<polygon fill="black" stroke="black" points="243.087,-118.88 252.355,-113.747 241.909,-111.98 243.087,-118.88"/>
</g>
<!-- velocity -->
<g id="node4" class="node"><title>velocity</title>
<ellipse fill="none" stroke="black" cx="408.273" cy="-108.869" rx="38.9931" ry="18"/>
<text text-anchor="middle" x="408.273" y="-105.169" font-family="Times,serif" font-size="14.00">velocity</text>
</g>
<!-- raster&#45;&gt;velocity -->
<g id="edge4" class="edge"><title>raster&#45;&gt;velocity</title>
<path fill="none" stroke="black" d="M312.714,-108.869C326.623,-108.869 343.533,-108.869 359.186,-108.869"/>
<polygon fill="black" stroke="black" points="359.246,-112.369 369.246,-108.869 359.246,-105.369 359.246,-112.369"/>
</g>
<!-- stepping -->
<g id="node5" class="node"><title>stepping</title>
<ellipse fill="none" stroke="black" cx="523.566" cy="-108.869" rx="40.0939" ry="18"/>
<text text-anchor="middle" x="523.566" y="-105.169" font-family="Times,serif" font-size="14.00">stepping</text>
</g>
<!-- velocity&#45;&gt;stepping -->
<g id="edge5" class="edge"><title>velocity&#45;&gt;stepping</title>
<path fill="none" stroke="black" d="M447.313,-108.869C455.448,-108.869 464.159,-108.869 472.664,-108.869"/>
<polygon fill="black" stroke="black" points="472.884,-112.369 482.884,-108.869 472.883,-105.369 472.884,-112.369"/>
</g>
<!-- capcur1 -->
<g id="node8" class="node"><title>capcur1</title>
<ellipse fill="none" stroke="black" cx="638.209" cy="-151.869" rx="38.1938" ry="18"/>
<text text-anchor="middle" x="638.209" y="-148.169" font-family="Times,serif" font-size="14.00">capcur1</text>
</g>
<!-- stepping&#45;&gt;capcur1 -->
<g id="edge14" class="edge"><title>stepping&#45;&gt;capcur1</title>
<path fill="none" stroke="black" d="M554.753,-120.392C568.096,-125.486 583.954,-131.539 598.181,-136.97"/>
<polygon fill="black" stroke="black" points="597.129,-140.315 607.719,-140.612 599.625,-133.775 597.129,-140.315"/>
</g>
<!-- capcur2 -->
<g id="node11" class="node"><title>capcur2</title>
<ellipse fill="none" stroke="black" cx="638.209" cy="-83.869" rx="38.1938" ry="18"/>
<text text-anchor="middle" x="638.209" y="-80.169" font-family="Times,serif" font-size="14.00">capcur2</text>
</g>
<!-- stepping&#45;&gt;capcur2 -->
<g id="edge15" class="edge"><title>stepping&#45;&gt;capcur2</title>
<path fill="none" stroke="black" d="M559.898,-101.027C570.47,-98.6812 582.192,-96.0795 593.246,-93.6261"/>
<polygon fill="black" stroke="black" points="594.154,-97.0099 603.158,-91.4263 592.638,-90.1762 594.154,-97.0099"/>
</g>
<!-- capbound1&#45;&gt;capweight1 -->
<g id="edge7" class="edge"><title>capbound1&#45;&gt;capweight1</title>
<path fill="none" stroke="black" d="M181.945,-211.663C198.108,-206.145 217.41,-199.555 234.661,-193.666"/>
<polygon fill="black" stroke="black" points="236.208,-196.836 244.541,-190.293 233.946,-190.211 236.208,-196.836"/>
</g>
<!-- capweight1&#45;&gt;capcur1 -->
<g id="edge8" class="edge"><title>capweight1&#45;&gt;capcur1</title>
<path fill="none" stroke="black" d="M332.565,-174.226C400.804,-169.219 522.744,-160.269 589.795,-155.349"/>
<polygon fill="black" stroke="black" points="590.351,-158.817 600.068,-154.595 589.839,-151.836 590.351,-158.817"/>
</g>
<!-- capbound2&#45;&gt;capweight2 -->
<g id="edge10" class="edge"><title>capbound2&#45;&gt;capweight2</title>
<path fill="none" stroke="black" d="M194.835,-39.869C203.088,-39.869 211.748,-39.869 220.264,-39.869"/>
<polygon fill="black" stroke="black" points="220.543,-43.3691 230.543,-39.869 220.543,-36.3691 220.543,-43.3691"/>
</g>
<!-- capweight2&#45;&gt;capcur2 -->
<g id="edge11" class="edge"><title>capweight2&#45;&gt;capcur2</title>
<path fill="none" stroke="black" d="M330.711,-45.803C398.838,-54.2641 523.095,-69.6964 590.582,-78.0781"/>
<polygon fill="black" stroke="black" points="590.554,-81.6013 600.909,-79.3606 591.416,-74.6547 590.554,-81.6013"/>
</g>
</g>
</svg>
